<svg width="28" height="30" viewBox="0 0 28 30" fill="none" xmlns="http://www.w3.org/2000/svg">
<g id="icons8-youtube (1) 2" clip-path="url(#clip0_1_4882)">
<g id="youtube_play">
<path id="Vector" d="M13.9281 6.91162C10.3659 6.91162 7.01936 7.1949 5.23772 7.59113C4.05014 7.87441 3.02485 8.72365 2.80867 10.0259C2.59362 11.3849 2.37744 13.1214 2.37744 15.6698C2.37744 18.2181 2.59362 19.8978 2.86314 21.3136C3.07932 22.5597 4.10461 23.4657 5.29219 23.7484C7.18107 24.1446 10.4198 24.4279 13.982 24.4279C17.5441 24.4279 20.7828 24.1446 22.6723 23.7484C23.8599 23.4651 24.8852 22.6159 25.1013 21.3136C25.3175 19.8978 25.587 18.1613 25.6409 15.613C25.6409 13.0647 25.3709 11.3281 25.1013 9.91234C24.8852 8.66627 23.8599 7.76025 22.6723 7.47758C20.7834 7.1949 17.4908 6.91162 13.9281 6.91162Z" fill="white" stroke="white" stroke-width="1.5092" stroke-miterlimit="10" stroke-linejoin="round"/>
<path id="Vector_2" d="M12.5914 19.1345L17.1249 16.408C17.8892 15.9483 17.8892 14.788 17.1249 14.3284L12.5914 11.6019C11.8328 11.1458 10.8892 11.7221 10.8892 12.6414V18.095C10.8892 19.0143 11.8328 19.5905 12.5914 19.1345Z" fill="#FA6662" stroke="#FA6662" stroke-width="0.100613" stroke-miterlimit="10" stroke-linejoin="round"/>
</g>
</g>
<defs>
<clipPath id="clip0_1_4882">
<rect width="27.2353" height="28.9924" fill="white" transform="translate(0.39209 0.871338)"/>
</clipPath>
</defs>
</svg>
