<svg width="20" height="21" viewBox="0 0 20 21" fill="none" xmlns="http://www.w3.org/2000/svg">
<g id="mail_FILL0_wght400_GRAD0_opsz24 1">
<path id="Vector" d="M3.65985 16.8242C3.21145 16.8242 2.82759 16.6646 2.50827 16.3453C2.18896 16.0259 2.0293 15.6421 2.0293 15.1937V5.41034C2.0293 4.96194 2.18896 4.57808 2.50827 4.25876C2.82759 3.93944 3.21145 3.77979 3.65985 3.77979H16.7043C17.1527 3.77979 17.5366 3.93944 17.8559 4.25876C18.1752 4.57808 18.3349 4.96194 18.3349 5.41034V15.1937C18.3349 15.6421 18.1752 16.0259 17.8559 16.3453C17.5366 16.6646 17.1527 16.8242 16.7043 16.8242H3.65985ZM10.1821 11.1173L3.65985 7.0409V15.1937H16.7043V7.0409L10.1821 11.1173ZM10.1821 9.48673L16.7043 5.41034H3.65985L10.1821 9.48673ZM3.65985 7.0409V5.41034V15.1937V7.0409Z" fill="#FA6663"/>
</g>
</svg>
