<svg width="23" height="23" viewBox="0 0 23 23" fill="none" xmlns="http://www.w3.org/2000/svg">
<g id="location_on_FILL0_wght400_GRAD0_opsz24 1">
<path id="Vector" d="M11.1826 11.3505C11.6838 11.3505 12.1128 11.172 12.4697 10.8151C12.8266 10.4582 13.005 10.0292 13.005 9.52807C13.005 9.02691 12.8266 8.59789 12.4697 8.24101C12.1128 7.88413 11.6838 7.70568 11.1826 7.70568C10.6815 7.70568 10.2524 7.88413 9.89555 8.24101C9.53867 8.59789 9.36022 9.02691 9.36022 9.52807C9.36022 10.0292 9.53867 10.4582 9.89555 10.8151C10.2524 11.172 10.6815 11.3505 11.1826 11.3505ZM11.1826 18.0477C13.0354 16.3468 14.4098 14.8016 15.3058 13.412C16.2018 12.0225 16.6498 10.7886 16.6498 9.71031C16.6498 8.05497 16.122 6.69957 15.0666 5.64411C14.0111 4.58864 12.7165 4.06091 11.1826 4.06091C9.64877 4.06091 8.35412 4.58864 7.29865 5.64411C6.24319 6.69957 5.71545 8.05497 5.71545 9.71031C5.71545 10.7886 6.16346 12.0225 7.05946 13.412C7.95547 14.8016 9.32985 16.3468 11.1826 18.0477ZM11.1826 20.4624C8.73758 18.3818 6.91139 16.4493 5.70406 14.6649C4.49673 12.8805 3.89307 11.229 3.89307 9.71031C3.89307 7.43233 4.62582 5.61753 6.09132 4.26593C7.55682 2.91433 9.25392 2.23853 11.1826 2.23853C13.1113 2.23853 14.8084 2.91433 16.2739 4.26593C17.7394 5.61753 18.4722 7.43233 18.4722 9.71031C18.4722 11.229 17.8685 12.8805 16.6612 14.6649C15.4538 16.4493 13.6276 18.3818 11.1826 20.4624Z" fill="#FA6663"/>
</g>
</svg>
