<svg width="22" height="22" viewBox="0 0 22 22" fill="none" xmlns="http://www.w3.org/2000/svg">
<g id="icons8-instagram (3) 2" clip-path="url(#clip0_1_4874)">
<path id="Vector" d="M6.78315 19.6275H14.3739C17.1686 19.6275 19.4344 17.3617 19.4344 14.567V6.97627C19.4344 4.18161 17.1686 1.91577 14.3739 1.91577H6.78315C3.98849 1.91577 1.72266 4.18161 1.72266 6.97627V14.567C1.72266 17.3617 3.98849 19.6275 6.78315 19.6275Z" fill="white" stroke="white" stroke-width="1.5092" stroke-miterlimit="10"/>
<path id="Vector_2" d="M10.5789 14.9886C12.9079 14.9886 14.796 13.1006 14.796 10.7715C14.796 8.4425 12.9079 6.55444 10.5789 6.55444C8.24987 6.55444 6.36182 8.4425 6.36182 10.7715C6.36182 13.1006 8.24987 14.9886 10.5789 14.9886Z" stroke="#FA6662" stroke-width="2.23656" stroke-miterlimit="10"/>
<path id="Vector_3" d="M15.6383 6.80604C16.2431 6.80604 16.7333 6.31582 16.7333 5.71109C16.7333 5.10637 16.2431 4.61614 15.6383 4.61614C15.0336 4.61614 14.5434 5.10637 14.5434 5.71109C14.5434 6.31582 15.0336 6.80604 15.6383 6.80604Z" fill="#FA6662" stroke="#FA6662" stroke-width="0.503067"/>
</g>
<defs>
<clipPath id="clip0_1_4874">
<rect width="21.0854" height="21.0854" fill="white" transform="translate(0.0371094 0.228516)"/>
</clipPath>
</defs>
</svg>
