<svg width="28" height="28" viewBox="0 0 28 28" fill="none" xmlns="http://www.w3.org/2000/svg">
<g id="icons8-linkedin (1) 2">
<path id="Vector" d="M20.8584 23.0365H7.13097C5.91801 23.0365 4.93457 22.0531 4.93457 20.8401V7.11266C4.93457 5.8997 5.91801 4.91626 7.13097 4.91626H20.8584C22.0714 4.91626 23.0548 5.8997 23.0548 7.11266V20.8401C23.0548 22.0531 22.0714 23.0365 20.8584 23.0365Z" fill="white" stroke="white" stroke-width="1.5092" stroke-miterlimit="10"/>
<path id="Vector_2" d="M9.32685 10.682C10.085 10.682 10.6996 10.0674 10.6996 9.30927C10.6996 8.55112 10.085 7.93652 9.32685 7.93652C8.5687 7.93652 7.9541 8.55112 7.9541 9.30927C7.9541 10.0674 8.5687 10.682 9.32685 10.682Z" fill="#FA6662"/>
<path id="Vector_3" d="M10.1505 20.0165H8.5032C8.19955 20.0165 7.9541 19.7711 7.9541 19.4674V12.3291C7.9541 12.0255 8.19955 11.78 8.5032 11.78H10.1505C10.4541 11.78 10.6996 12.0255 10.6996 12.3291V19.4674C10.6996 19.7711 10.4541 20.0165 10.1505 20.0165Z" fill="#FA6662"/>
<path id="Vector_4" d="M16.7393 11.78C15.8947 11.78 15.1266 12.1018 14.5429 12.6262V12.3291C14.5429 12.0255 14.2974 11.78 13.9938 11.78H12.3465C12.0428 11.78 11.7974 12.0255 11.7974 12.3291V19.4674C11.7974 19.7711 12.0428 20.0165 12.3465 20.0165H13.9938C14.2974 20.0165 14.5429 19.7711 14.5429 19.4674V15.3492C14.5429 14.592 15.1584 13.9764 15.9156 13.9764C16.6728 13.9764 17.2884 14.592 17.2884 15.3492V19.4674C17.2884 19.7711 17.5338 20.0165 17.8375 20.0165H19.4848C19.7884 20.0165 20.0339 19.7711 20.0339 19.4674V15.0746C20.0339 13.2577 18.5562 11.78 16.7393 11.78Z" fill="#FA6662"/>
</g>
</svg>
