<svg width="20" height="20" viewBox="0 0 20 20" fill="none" xmlns="http://www.w3.org/2000/svg">
<g id="call_FILL0_wght400_GRAD0_opsz24 1">
<path id="Vector" d="M16.6652 17.5253C14.9667 17.5253 13.2885 17.1551 11.6308 16.4145C9.97308 15.674 8.46482 14.6243 7.10602 13.2655C5.74722 11.9067 4.69755 10.3985 3.95701 8.74072C3.21646 7.08299 2.84619 5.40488 2.84619 3.70638C2.84619 3.4618 2.92772 3.25798 3.09077 3.09493C3.25383 2.93187 3.45765 2.85034 3.70223 2.85034H7.00411C7.19434 2.85034 7.36419 2.91488 7.51366 3.04397C7.66313 3.17306 7.75145 3.32592 7.77862 3.50256L8.30855 6.35604C8.33573 6.57344 8.32894 6.75688 8.28817 6.90635C8.24741 7.05582 8.17267 7.1849 8.06397 7.29361L6.08692 9.29104C6.35868 9.79379 6.68139 10.2796 7.05506 10.7483C7.42873 11.2171 7.83977 11.6689 8.28817 12.1037C8.7094 12.525 9.15101 12.9156 9.613 13.2757C10.075 13.6358 10.5642 13.9653 11.0805 14.2642L12.9964 12.3483C13.1187 12.226 13.2784 12.1343 13.4754 12.0732C13.6724 12.012 13.866 11.995 14.0563 12.0222L16.869 12.5929C17.0592 12.6473 17.2155 12.7458 17.3378 12.8885C17.46 13.0311 17.5212 13.1908 17.5212 13.3674V16.6693C17.5212 16.9139 17.4397 17.1177 17.2766 17.2808C17.1136 17.4438 16.9097 17.5253 16.6652 17.5253ZM5.31241 7.74201L6.65762 6.3968L6.31112 4.4809H4.49713C4.56507 5.038 4.66018 5.58832 4.78248 6.13184C4.90477 6.67535 5.08141 7.21208 5.31241 7.74201ZM12.6091 15.0387C13.1391 15.2697 13.6792 15.4532 14.2295 15.5891C14.7798 15.7249 15.3335 15.8133 15.8906 15.854V14.0604L13.9747 13.6732L12.6091 15.0387Z" fill="#FA6663"/>
</g>
</svg>
