<svg width="27" height="27" viewBox="0 0 27 27" fill="none" xmlns="http://www.w3.org/2000/svg">
<g id="icons8-facebook (3) 2">
<g id="facebook">
<path id="Vector" d="M20.6583 22.8312H6.93077C5.71781 22.8312 4.73438 21.8478 4.73438 20.6348V6.90733C4.73438 5.69437 5.71781 4.71094 6.93077 4.71094H20.6583C21.8712 4.71094 22.8546 5.69437 22.8546 6.90733V20.6348C22.8546 21.8478 21.8712 22.8312 20.6583 22.8312Z" fill="white" stroke="white" stroke-width="1.5092" stroke-miterlimit="10" stroke-linejoin="round"/>
<path id="Vector_2" d="M11.5979 16.5168H13.7943V23.5541C14.3402 23.5541 14.8327 23.5541 15.3949 23.5541C15.9572 23.5541 16.5177 23.5541 17.0889 23.5541V16.5168H19.0794C19.3561 16.5168 19.5901 16.3103 19.6241 16.0358L19.83 14.3885C19.8498 14.2325 19.8009 14.0755 19.6966 13.9569C19.5928 13.8388 19.4429 13.7713 19.2853 13.7713H17.0889V11.8494C17.0889 11.2438 17.5815 10.7512 18.1871 10.7512H19.2853C19.5884 10.7512 19.8344 10.5058 19.8344 10.2021V8.34894C19.8344 8.0645 19.617 7.82729 19.3342 7.80203C19.3018 7.79929 18.5276 7.7312 17.5469 7.7312C15.127 7.7312 13.7943 9.16819 13.7943 11.777V13.7713H11.5979C11.2948 13.7713 11.0488 14.0167 11.0488 14.3204V15.9677C11.0488 16.2713 11.2948 16.5168 11.5979 16.5168Z" fill="#FA6662"/>
</g>
</g>
</svg>
