<?xml version="1.0" encoding="UTF-8"?><svg id="Layer_1" xmlns="http://www.w3.org/2000/svg" viewBox="0 0 689.6 404.3"><defs><style>.cls-1{fill:#fa6661;}</style></defs><path class="cls-1" d="M265.3,256.7v-70c72.3-.4,106.1-34.8,106.1-92,0-51-36.3-91.1-119-91.1h-69.6v30.6c0,1-1.3,1.3-1.8.5C168.4,11.7,136.3,0,103.4,0,40.6,0,0,33.9,0,86.3c0,22.5,7.5,40.2,23,54.1,21.7,19.1,49.9,24.8,65.1,27.9,2.8.6,5.3,1.1,7.2,1.6,3.7.8,3.7,1.9,3.7,3,0,1,0,3.2-7.6,3.2-13.6,0-45.4-7.4-77-28l-7.4-4.8v93.9l2.6,1.3c23.6,12.3,60,20.3,92.8,20.3,34.6,0,63.2-9.1,77.9-28.2.8-1,2.5-.5,2.5.9v25.2h82.5Z"/><path d="M492.6,395.8c4.1,2.5,8.5,4.5,13.1,5.9s9.4,2.1,14.2,2.1,9.5-.7,14.2-2.1c4.7-1.4,9.1-3.4,13.2-5.9s7.9-5.6,11.2-9.2c3.4-3.6,6.1-7.6,8.1-11.9,1-2.1,1.9-4.1,2.6-6.1.8-2,1.3-4.2,1.7-6.5.4-2.2.7-4.8.8-7.5.2-2.7.2-5.8.2-9.3v-56.6h-25.9v57.2c0,2.6,0,4.8-.1,6.4-.1,1.6-.2,2.9-.3,3.9-.1.9-.4,1.8-.7,2.7-.4,1-.8,2.1-1.5,3.4-2.1,4.7-5.4,8.5-9.7,11.4s-8.9,4.3-14,4.3-9.8-1.4-14.2-4.3c-4.3-2.9-7.6-6.7-9.7-11.4-.6-1.3-1.1-2.5-1.5-3.4-.3-.8-.5-1.7-.6-2.7-.2-1.2-.3-2.5-.3-4-.1-1.6-.1-3.6-.1-6.4v-57.2h-25.5v56.6c0,3.6.1,6.7.2,9.4.2,2.7.5,5.2.8,7.4.4,2.3.9,4.5,1.6,6.5.7,2,1.6,4.1,2.7,6.2,2,4.3,4.8,8.3,8.1,11.9,3.5,3.6,7.3,6.7,11.4,9.2"/><path d="M659.2,401.3c6.2-1.7,11.6-4.2,16-7.4,4.5-3.2,8.1-7.2,10.6-11.8s3.8-9.8,3.8-15.4c0-4.8-1-9.4-3-13.8-2-4.4-4.8-8.1-8.3-11.2-1.3-1-2.5-2-3.8-2.8s-2.8-1.6-4.4-2.2c-1.6-.6-3.3-1.2-5.1-1.7s-3.8-1-6.4-1.6l-25.6-5c-3.2-.6-5.7-1.2-7.6-1.5-1.8-.4-3.1-.7-4-.9-1.1-.3-1.5-.5-1.6-.5-.2-.1-.6-.3-1.4-.8-.4-.2-.7-.7-1-1.3-.4-.9-.5-1.7-.5-2.7,0-5.4,6.6-8.1,19.7-8.1,2.8,0,5.4.1,7.7.4,2.3.3,4.6.7,6.9,1.3,2.3.6,4.7,1.5,7.3,2.6,2.6,1.2,5.7,2.7,9.2,4.4l2.2,1.1,13.7-21-2.4-1.4c-3.8-2.3-7.5-4.3-11-5.9-3.5-1.7-7.1-3-10.6-4.1-3.6-1.1-7.3-1.8-11-2.3s-7.7-.7-11.7-.7c-14,0-25.1,3-33.2,8.8-8.3,6-12.6,14.5-12.6,25.2,0,7.9,2.6,14.7,7.6,20.2s11.9,9.1,20.5,10.8l26.7,5.2c3,.6,5.4,1.1,7.2,1.5,1.6.3,2.9.6,3.8.8,1.1.3,1.6.5,1.9.6.4.1.8.3,1.3.5,2.8,1.4,4,3.3,4,6.1,0,1.4-.3,2.7-1,4-.6,1.2-1.4,2.1-2.4,2.7-2.4,1.5-5.8,2.6-10,3.5-4.3.9-9,1.4-13.8,1.4-6.5,0-12.6-.9-18.1-2.7-5.6-1.8-11.5-4.8-17.6-8.9l-2.2-1.5-14.6,21.1,2,1.6c6.9,5.3,14.9,9.4,23.7,12.2s18.4,4.2,28.6,4.2c7.5-.4,14.4-1.3,20.5-3"/><path d="M359.7,260c7.5,0,14.4-.9,20.6-2.6,6.2-1.7,11.6-4.2,16-7.4,4.5-3.2,8.1-7.2,10.6-11.8s3.8-9.8,3.8-15.4c0-4.8-1-9.4-3-13.8-2-4.4-4.8-8.1-8.3-11.2-1.3-1-2.5-2-3.8-2.8s-2.8-1.6-4.4-2.2c-1.6-.6-3.3-1.2-5.1-1.7s-3.8-1-6.4-1.6l-25.6-5c-3.2-.6-5.7-1.2-7.6-1.5-1.8-.4-3.1-.7-4-.9-1.1-.3-1.5-.5-1.6-.5-.2-.1-.6-.3-1.4-.8-.4-.2-.7-.7-1-1.3-.4-.9-.5-1.7-.5-2.7,0-5.4,6.6-8.1,19.7-8.1,2.8,0,5.4.1,7.7.4s4.6.7,6.9,1.3c2.3.6,4.7,1.5,7.3,2.6,2.6,1.2,5.7,2.7,9.2,4.4l2.2,1.1,13.7-21-2.4-1.4c-3.8-2.3-7.5-4.3-11-5.9-3.5-1.7-7.1-3-10.6-4.1-3.6-1.1-7.3-1.8-11-2.3s-7.7-.8-11.7-.8c-14,0-25.1,3-33.2,8.8-8.3,6-12.6,14.5-12.6,25.2,0,7.9,2.6,14.7,7.6,20.2s11.9,9.1,20.5,10.8l26.7,5.2c3,.6,5.4,1.1,7.2,1.5,1.6.3,2.9.6,3.8.8,1.1.3,1.6.5,1.9.6.4.1.8.3,1.3.5,2.8,1.4,4,3.3,4,6.1,0,1.4-.3,2.7-1,4-.6,1.2-1.4,2.1-2.4,2.7-2.4,1.5-5.8,2.6-10,3.5-4.3.9-9,1.4-13.8,1.4-6.5,0-12.6-.9-18.1-2.7-5.6-1.8-11.5-4.8-17.6-8.9l-2.2-1.5-14.6,21.1,2,1.6c6.9,5.3,14.9,9.4,23.7,12.2,8.6,2.5,18.3,3.9,28.5,3.9"/><path d="M167.3,323.8l13.5,29h-27.2l13.7-29ZM154.8,288.8l-52.5,113h28.3l11.1-23.6h51.1l11.1,23.6h28.2l-52.5-113h-24.8Z"/><polygon points="364.3 288.8 364.3 401.8 455.7 401.8 455.7 375.9 390.2 375.9 390.2 288.8 364.3 288.8"/><polygon points="496.5 189.9 551.3 257.9 574.9 257.9 574.9 144.9 549.1 144.9 549.1 213.9 492.8 144.9 470.6 144.9 470.6 257.9 496.5 257.9 496.5 189.9"/><polygon points="626.5 257.9 652.3 257.9 652.3 169.7 687.2 169.7 687.2 144.9 591.4 144.9 591.4 169.7 626.5 169.7 626.5 257.9"/><rect x="425.1" y="144.9" width="25.9" height="113"/><path d="M316.9,346c0,2.6,0,4.8-.1,6.4-.1,1.6-.2,2.9-.3,3.9-.1.9-.4,1.8-.7,2.7-.4,1-.8,2.1-1.5,3.4-2.1,4.7-5.4,8.5-9.7,11.4-4.3,2.9-8.9,4.3-14,4.3s-9.8-1.4-14.2-4.3c-4.3-2.9-7.6-6.7-9.7-11.4-.6-1.3-1.1-2.5-1.5-3.4-.3-.8-.5-1.7-.6-2.7-.2-1.2-.3-2.5-.3-4-.1-1.6-.1-3.6-.1-6.4v-57.2h-25.9v56.6c0,3.6.1,6.7.2,9.4.2,2.7.5,5.2.8,7.4.4,2.3,1,4.4,1.6,6.5.7,2,1.6,4.1,2.7,6.2,2,4.3,4.8,8.3,8.1,11.9,3.3,3.5,7.1,6.6,11.2,9.2,4.1,2.5,8.5,4.5,13.1,5.9s9.4,2.1,14.2,2.1,9.6-.7,14.2-2.1c4.7-1.4,9.1-3.4,13.2-5.9s7.9-5.6,11.2-9.2c3.4-3.6,6.1-7.6,8.1-11.9,1-2.1,1.9-4.1,2.6-6.1.8-2,1.3-4.2,1.7-6.5.4-2.2.7-4.8.8-7.5.2-2.7.2-5.8.2-9.3v-56.6h-25.9v57.2h.6Z"/><path d="M86.1,325.7c0,1.3-.3,2.6-.9,3.8-.6,1.3-1.4,2.4-2.4,3.3-1,1-2.2,1.7-3.5,2.3s-2.6.8-4.1.8h-42v-21.2h39.7c2.6,0,4,.2,4.7.3,1,.2,2,.6,3.1,1.1,1.6,1,2.9,2.3,3.9,4,1,1.7,1.5,3.6,1.5,5.6M90.5,292.1c-1.5-.7-2.8-1.2-3.9-1.6-1.2-.5-2.6-.9-4.1-1.1-1.4-.2-3-.4-4.7-.4-1.7-.1-3.8-.1-6.4-.1H7.4v113h25.9v-40h32.5c4.1,0,7.3,0,9.8-.1,2.6-.1,4.9-.2,6.7-.5,1.9-.3,3.5-.7,4.9-1.2s2.8-1.1,4.3-1.9c6.3-3.3,11.3-7.9,14.9-13.7s5.4-12.2,5.4-19c0-7.3-1.9-13.9-5.8-19.9-3.7-6-8.9-10.5-15.5-13.5"/></svg>