<?xml version="1.0" encoding="UTF-8"?><svg id="Layer_1" xmlns="http://www.w3.org/2000/svg" viewBox="0 0 1055 294.3"><defs><style>.cls-1{fill:#fa6661;}</style></defs><path class="cls-1" d="M301.4,291.9v-79.6c82.1-.5,120.6-39.5,120.6-104.6,0-58-41.3-103.5-135.2-103.5h-79.1v34.8c0,1.1-1.5,1.5-2,.5C191.4,13.3,154.9,0,117.5,0,46.1,0,0,38.5,0,98.1c0,25.6,8.5,45.7,26.2,61.4,24.7,21.7,56.8,28.2,74,31.7,3.2.7,6,1.2,8.1,1.8,4.2,1,4.2,2.1,4.2,3.4,0,1.1,0,3.7-8.6,3.7-15.5,0-51.5-8.5-87.5-31.8l-8.4-5.4v106.7l2.9,1.5c26.8,14,68.2,23,105.5,23,39.3,0,71.8-10.3,88.6-32.1.9-1.2,2.8-.5,2.8,1v28.7h93.6v.2Z"/><path d="M415.1,150.1c7.5,0,14.4-.9,20.6-2.6,6.2-1.7,11.6-4.2,16-7.4,4.5-3.2,8.1-7.2,10.6-11.8,2.5-4.6,3.8-9.8,3.8-15.4,0-4.8-1-9.4-3-13.8s-4.8-8.1-8.3-11.2c-1.3-1-2.5-2-3.8-2.8s-2.8-1.6-4.4-2.2c-1.6-.6-3.3-1.2-5.1-1.7s-3.8-1-6.4-1.6l-25.6-5c-3.2-.6-5.7-1.2-7.6-1.5-1.8-.4-3.1-.7-4-.9-1.1-.3-1.5-.5-1.6-.5-.2-.1-.6-.3-1.4-.8-.4-.2-.7-.7-1-1.3-.4-.9-.5-1.7-.5-2.7,0-5.4,6.6-8.1,19.7-8.1,2.8,0,5.4.1,7.7.4,2.3.3,4.6.7,6.9,1.3,2.3.6,4.7,1.5,7.3,2.6,2.6,1.2,5.7,2.7,9.2,4.4l2.2,1.1,13.7-21-2.4-1.4c-3.8-2.3-7.5-4.3-11-5.9-3.5-1.7-7.1-3-10.6-4.1-3.6-1.1-7.3-1.8-11-2.3s-7.7-.8-11.7-.8c-14,0-25.1,3-33.2,8.8-8.3,6-12.6,14.5-12.6,25.2,0,7.9,2.6,14.7,7.6,20.2s11.9,9.1,20.5,10.8l26.7,5.2c3,.6,5.4,1.1,7.2,1.5,1.6.3,2.9.6,3.8.8,1.1.3,1.6.5,1.9.6.4.1.8.3,1.3.5,2.8,1.4,4,3.3,4,6.1,0,1.4-.3,2.7-1,4-.6,1.2-1.4,2.1-2.4,2.7-2.4,1.5-5.8,2.6-10,3.5-4.3.9-9,1.4-13.8,1.4-6.5,0-12.6-.9-18.1-2.7-5.6-1.8-11.5-4.8-17.6-8.9l-2.2-1.5-14.6,21.1,2,1.6c6.9,5.3,14.9,9.4,23.7,12.2,8.6,2.5,18.2,3.9,28.5,3.9"/><polygon points="551.9 80 606.6 148 630.3 148 630.3 35 604.4 35 604.4 104 548.2 35 526 35 526 148 551.9 148 551.9 80"/><polygon points="681.8 148 707.7 148 707.7 59.7 742.5 59.7 742.5 35 646.8 35 646.8 59.7 681.8 59.7 681.8 148"/><rect x="480.5" y="35" width="25.9" height="113"/><path d="M520.1,242.1l13.6-28.9,13.5,28.9h-27.1ZM508.2,267.4h50.9l11.1,23.5h28.1l-52.3-112.6h-24.8l-52.3,112.6h28.2l11.1-23.5Z"/><path d="M682.8,235.3c0,2.6,0,4.8-.1,6.4s-.2,2.9-.3,3.9c-.1.9-.4,1.8-.7,2.7-.4,1-.8,2.1-1.5,3.4-2.1,4.7-5.4,8.5-9.7,11.4-4.3,2.9-8.9,4.3-13.9,4.3s-9.8-1.4-14.1-4.3-7.5-6.7-9.7-11.4c-.6-1.3-1.1-2.5-1.5-3.4-.3-.8-.5-1.6-.6-2.7s-.3-2.5-.3-4c-.1-1.6-.1-3.6-.1-6.3v-57h-25.8v56.4c0,3.6.1,6.7.2,9.3.2,2.7.5,5.2.8,7.4.4,2.3.9,4.4,1.6,6.4.7,2,1.6,4.1,2.7,6.1,2,4.3,4.8,8.3,8.1,11.9,3.3,3.5,7.1,6.6,11.2,9.1,4.1,2.5,8.5,4.5,13.1,5.9s9.4,2.1,14.1,2.1,9.5-.7,14.2-2.1c4.6-1.4,9.1-3.4,13.2-5.9,4.1-2.5,7.8-5.6,11.2-9.1,3.3-3.6,6.1-7.6,8.1-11.9,1-2.1,1.9-4.1,2.6-6.1.7-2,1.3-4.2,1.7-6.5.4-2.2.7-4.7.8-7.5.2-2.7.2-5.8.2-9.2v-56.4h-25.8v57.1h.3Z"/><polygon points="730.1 178.3 730.1 290.9 821.1 290.9 821.1 265.1 755.9 265.1 755.9 178.3 730.1 178.3"/><path d="M857.9,285.9c4.1,2.5,8.5,4.5,13.1,5.9,4.6,1.4,9.4,2.1,14.2,2.1s9.5-.7,14.2-2.1,9.1-3.4,13.2-5.9,7.9-5.6,11.2-9.2c3.4-3.6,6.1-7.6,8.1-11.9,1-2.1,1.9-4.1,2.6-6.1.8-2,1.3-4.2,1.7-6.5.4-2.2.7-4.8.8-7.5.2-2.7.2-5.8.2-9.3v-56.6h-25.6v57.3c0,2.6,0,4.8-.1,6.4s-.2,2.9-.3,3.9c-.1.9-.4,1.8-.7,2.7-.4,1-.8,2.1-1.5,3.4-2.1,4.7-5.4,8.5-9.7,11.4-4.3,2.9-8.9,4.3-14,4.3s-9.8-1.4-14.2-4.3c-4.3-2.9-7.6-6.7-9.7-11.4-.6-1.3-1.1-2.5-1.5-3.4-.3-.8-.5-1.7-.6-2.7-.2-1.2-.3-2.5-.3-4-.1-1.6-.1-3.6-.1-6.4v-57.2h-25.9v56.6c0,3.6.1,6.7.2,9.4.2,2.7.5,5.2.8,7.4.4,2.3.9,4.5,1.6,6.5.7,2,1.6,4.1,2.7,6.2,2,4.3,4.8,8.3,8.1,11.9,3.7,3.5,7.4,6.5,11.5,9.1"/><path d="M1024.6,291.3c6.2-1.7,11.6-4.2,16-7.4,4.5-3.2,8.1-7.2,10.6-11.8,2.5-4.6,3.8-9.8,3.8-15.4,0-4.8-1-9.4-3-13.8s-4.8-8.1-8.3-11.2c-1.3-1-2.5-2-3.8-2.8s-2.8-1.6-4.4-2.2-3.3-1.2-5.1-1.7c-1.8-.5-3.8-1-6.4-1.6l-25.6-5c-3.2-.6-5.7-1.2-7.6-1.5-1.8-.4-3.1-.7-4-.9-1.1-.3-1.5-.5-1.6-.5-.2-.1-.6-.3-1.4-.8-.4-.2-.7-.7-1-1.3-.4-.9-.5-1.7-.5-2.7,0-5.4,6.6-8.1,19.7-8.1,2.8,0,5.4.1,7.7.4,2.3.3,4.6.7,6.9,1.3,2.3.6,4.7,1.5,7.3,2.6,2.6,1.2,5.7,2.7,9.2,4.4l2.2,1.1,13.7-21-2.4-1.4c-3.8-2.3-7.5-4.3-11-5.9-3.5-1.7-7.1-3-10.6-4.1-3.6-1.1-7.3-1.8-11-2.3s-7.7-.7-11.7-.7c-14,0-25.1,3-33.2,8.8-8.3,6-12.6,14.5-12.6,25.2,0,7.9,2.6,14.7,7.6,20.2s11.9,9.1,20.5,10.8l26.7,5.2c3,.6,5.4,1.1,7.2,1.5,1.6.3,2.9.6,3.8.8,1.1.3,1.6.5,1.9.6.4.1.8.3,1.3.5,2.8,1.4,4,3.3,4,6.1,0,1.4-.3,2.7-1,4-.6,1.2-1.4,2.1-2.4,2.7-2.4,1.5-5.8,2.6-10,3.5-4.3.9-9,1.4-13.8,1.4-6.5,0-12.6-.9-18.1-2.7-5.6-1.8-11.5-4.8-17.6-8.9l-2.2-1.5-14.6,21.1,2,1.6c6.9,5.3,14.9,9.4,23.7,12.2,8.8,2.8,18.4,4.2,28.6,4.2,7.4-.4,14.3-1.2,20.5-3"/><path d="M451.5,215.7c0,1.3-.3,2.6-.9,3.8-.6,1.3-1.4,2.4-2.4,3.3-1,1-2.2,1.7-3.5,2.3-1.3.6-2.6.8-4.1.8h-42v-21.2h39.7c2.6,0,4,.2,4.7.3,1,.2,2,.6,3.1,1.1,1.6,1,2.9,2.3,3.9,4,1,1.8,1.5,3.6,1.5,5.6M455.9,182.1c-1.5-.7-2.8-1.2-3.9-1.6-1.2-.5-2.6-.9-4.1-1.1-1.4-.2-3-.4-4.7-.4-1.7-.1-3.8-.1-6.4-.1h-64v113h25.8v-40h32.5c4.1,0,7.3,0,9.8-.1,2.6-.1,4.9-.2,6.7-.5,1.9-.3,3.5-.7,4.9-1.2s2.8-1.1,4.3-1.9c6.3-3.3,11.3-7.9,14.9-13.7,3.6-5.8,5.4-12.2,5.4-19,0-7.3-1.9-13.9-5.8-19.9-3.7-5.9-8.9-10.4-15.4-13.5"/></svg>