<?xml version="1.0" encoding="UTF-8"?><svg id="Layer_1" xmlns="http://www.w3.org/2000/svg" viewBox="0 0 735.8 513"><defs><style>.cls-1{fill:#fff;}</style></defs><path class="cls-1" d="M525.5,508.8v-138.8c143.2-.9,210.3-68.9,210.3-182.3,0-101.1-72-180.4-235.7-180.4h-138v60.6c0,2-2.6,2.7-3.6.9C333.6,23.1,270,0,204.8,0,80.4,0,0,67.2,0,171.1c0,44.6,14.9,79.6,45.6,107.1,43,37.7,99,49.2,129,55.3,5.6,1.1,10.4,2.1,14.2,3.1,7.2,1.7,7.2,3.7,7.2,6,0,1.9,0,6.4-15,6.4-27,0-89.9-14.8-152.5-55.4l-14.6-9.5v186.1l5.1,2.6c46.8,24.4,119,40.2,183.9,40.2,68.5,0,125.2-18,154.4-55.9,1.6-2.1,4.9-.9,4.9,1.7v50h163.3Z"/></svg>